<?xml version="1.0" encoding="utf-8"?>
<!-- Generator: Adobe Illustrator 19.0.1, SVG Export Plug-In . SVG Version: 6.00 Build 0)  -->
<svg version="1.1" id="Слой_1" xmlns="http://www.w3.org/2000/svg" xmlns:xlink="http://www.w3.org/1999/xlink" x="0px" y="0px"
	 viewBox="0 0 47 31.9" style="enable-background:new 0 0 47 31.9;" xml:space="preserve">
<style type="text/css">
	.st0{fill:#C37602;}
	.st1{fill:#D38F00;}
	.st2{opacity:0.57;fill:#C37602;}
	.st3{fill:#403C31;stroke:#1D1D1B;stroke-miterlimit:10;}
	.st4{opacity:0.14;fill:#F6F6F6;}
	.st5{fill:#171310;}
	.st6{opacity:0.21;fill:#0A0A0A;}
	.st7{fill:#403C31;stroke:#171310;stroke-miterlimit:10;}
	.st8{fill:#171310;stroke:#171310;stroke-miterlimit:10;}
	.st9{opacity:0.38;fill:#766C62;}
	.st10{fill:none;stroke:#171310;stroke-width:2.6792;stroke-miterlimit:10;}
	.st11{fill:#1A7259;stroke:#171310;stroke-width:5;stroke-miterlimit:10;}
	.st12{fill:#16634B;stroke:#171310;stroke-width:3.2928;stroke-miterlimit:10;}
	.st13{fill:#403C31;}
	.st14{opacity:0.5;fill:#766C62;}
	.st15{fill:none;stroke:#171310;stroke-width:10.7167;stroke-miterlimit:10;}
	.st16{fill:#766C62;stroke:#171310;stroke-width:8.0375;stroke-miterlimit:10;}
	.st17{fill:#F0D5A0;}
	.st18{fill:#1D1D1B;}
	.st19{fill:#FEEFD0;}
	.st20{fill:#470003;stroke:#171310;stroke-miterlimit:10;}
	.st21{fill:#E30613;stroke:#171310;stroke-miterlimit:10;}
	.st22{fill:#766C62;stroke:#1D1D1B;stroke-miterlimit:10;}
	.st23{fill:#FFFFFF;stroke:#403C31;stroke-width:2.6873;stroke-miterlimit:10;}
	.st24{fill:#302C24;}
	.st25{fill:#353128;stroke:#1D1D1B;stroke-miterlimit:10;}
	.st26{fill:#6D6743;}
	.st27{fill:#808430;}
	.st28{fill:#FFFFFF;}
	.st29{fill:#808430;stroke:#171310;stroke-miterlimit:10;}
	.st30{fill:#6D6743;stroke:#171310;stroke-miterlimit:10;}
	.st31{fill:#403C31;stroke:#171310;stroke-linecap:round;stroke-linejoin:round;stroke-miterlimit:10;}
	.st32{fill:#F0D5A0;stroke:#1D1D1B;stroke-width:4;stroke-miterlimit:10;}
	.st33{fill:none;stroke:#0A0A0A;stroke-width:2.6792;stroke-miterlimit:10;}
	.st34{fill:none;stroke:#0A0A0A;stroke-width:3.4594;stroke-miterlimit:10;}
	.st35{fill:#0A0A0A;}
	.st36{fill:#470003;stroke:#171310;stroke-width:2;stroke-miterlimit:10;}
	.st37{fill:#FB0101;stroke:#171310;stroke-width:1.2322;stroke-miterlimit:10;}
	.st38{fill:#F0D5A0;stroke:#1D1D1B;stroke-width:2;stroke-miterlimit:10;}
	.st39{fill:#353128;stroke:#1D1D1B;stroke-width:0.9703;stroke-miterlimit:10;}
	.st40{fill:#D6D3CA;stroke:#1D1D1B;stroke-miterlimit:10;}
	.st41{fill:#171310;stroke:#171310;stroke-linecap:round;stroke-linejoin:round;stroke-miterlimit:10;}
	.st42{fill:none;stroke:#171310;stroke-width:2.6873;stroke-miterlimit:10;}
	.st43{opacity:0.42;fill:#E0A736;}
	.st44{fill:#E0A736;}
	.st45{fill:#1A7259;}
	.st46{fill:#470003;}
	.st47{fill:#3A0206;}
	.st48{opacity:0.5;fill:#6D6743;}
	.st49{fill:#1A7259;stroke:#171310;stroke-miterlimit:10;}
	.st50{opacity:0.57;fill:#115B44;}
	.st51{fill:#31876D;}
	.st52{opacity:0.4;fill:#0CA374;}
	.st53{fill:#77772B;}
	.st54{fill:#8C8C3B;}
	.st55{fill:#F6F6F6;stroke:#171310;stroke-width:2;stroke-miterlimit:10;}
	.st56{fill:#403C31;stroke:#171310;stroke-width:1.2123;stroke-miterlimit:10;}
	.st57{opacity:5.000000e-002;fill:#DADADA;}
	.st58{fill:none;stroke:#171310;stroke-miterlimit:10;}
	.st59{fill:#403C31;stroke:#1D1D1B;stroke-width:0.693;stroke-miterlimit:10;}
	.st60{fill:#403C31;stroke:#171310;stroke-width:0.693;stroke-miterlimit:10;}
	.st61{fill:#171310;stroke:#171310;stroke-width:0.693;stroke-miterlimit:10;}
	.st62{fill:#F0D5A0;stroke:#1D1D1B;stroke-width:2.7718;stroke-miterlimit:10;}
	.st63{fill:none;stroke:#0A0A0A;stroke-width:1.8565;stroke-miterlimit:10;}
	.st64{fill:none;stroke:#0A0A0A;stroke-width:2.3972;stroke-miterlimit:10;}
	.st65{fill:#353128;stroke:#1D1D1B;stroke-width:0.6724;stroke-miterlimit:10;}
	.st66{fill:#353128;stroke:#1D1D1B;stroke-width:0.693;stroke-miterlimit:10;}
	.st67{fill:#D6D3CA;stroke:#1D1D1B;stroke-width:0.693;stroke-miterlimit:10;}
	.st68{fill:#FFFFFF;stroke:#403C31;stroke-width:1.8622;stroke-miterlimit:10;}
	.st69{fill:#766C62;stroke:#1D1D1B;stroke-width:0.693;stroke-miterlimit:10;}
	.st70{fill:#F0D5A0;stroke:#1D1D1B;stroke-width:1.3859;stroke-miterlimit:10;}
	.st71{opacity:0.48;fill:#171310;}
	.st72{opacity:0.63;fill:#AFA195;}
	.st73{opacity:0.52;fill:#AFA195;}
	.st74{fill:#2D0104;}
	.st75{fill:#F9B233;}
	.st76{fill:#FA0100;}
	.st77{fill:#403C31;stroke:#171310;stroke-width:0.7946;stroke-miterlimit:10;}
	.st78{fill:#171310;stroke:#171310;stroke-width:0.7946;stroke-miterlimit:10;}
	.st79{fill:#230205;}
	.st80{fill:#D38F00;stroke:#171310;stroke-width:8.0375;stroke-miterlimit:10;}
	.st81{opacity:0.63;fill:#D38F00;}
	.st82{opacity:0.52;fill:#E0A734;}
	.st83{fill:#403C31;stroke:#171310;stroke-width:0.9169;stroke-miterlimit:10;}
	.st84{fill:#171310;stroke:#171310;stroke-width:0.9169;stroke-miterlimit:10;}
	.st85{fill:#EDEDED;stroke:#171310;stroke-linecap:round;stroke-linejoin:round;stroke-miterlimit:10;}
	.st86{fill:#808430;stroke:#171310;stroke-linecap:round;stroke-linejoin:round;stroke-miterlimit:10;}
	.st87{fill:#6D6743;stroke:#171310;stroke-linecap:round;stroke-linejoin:round;stroke-miterlimit:10;}
	.st88{fill:none;stroke:#020605;stroke-width:4.2533;stroke-miterlimit:10;}
	.st89{fill:#403C31;stroke:#1D1D1B;stroke-width:0.8699;stroke-miterlimit:10;}
	.st90{fill:#171310;stroke:#171310;stroke-width:0.8699;stroke-miterlimit:10;}
	.st91{fill:none;stroke:#171310;stroke-width:1.8539;stroke-miterlimit:10;}
	.st92{fill:#171310;stroke:#171310;stroke-width:0.6899;stroke-miterlimit:10;}
	.st93{fill:#403C31;stroke:#171310;stroke-width:0.6899;stroke-miterlimit:10;}
	.st94{fill:#F0D5A0;stroke:#1D1D1B;stroke-width:2.7594;stroke-miterlimit:10;}
	.st95{fill:#403C31;stroke:#1D1D1B;stroke-width:0.6899;stroke-miterlimit:10;}
	.st96{fill:#353128;stroke:#1D1D1B;stroke-width:0.6899;stroke-miterlimit:10;}
	.st97{fill:#D6D3CA;stroke:#1D1D1B;stroke-width:0.6899;stroke-miterlimit:10;}
	.st98{fill:#FFFFFF;stroke:#403C31;stroke-width:1.8539;stroke-miterlimit:10;}
	.st99{fill:#766C62;stroke:#1D1D1B;stroke-width:0.6899;stroke-miterlimit:10;}
	.st100{fill:#F0D5A0;stroke:#1D1D1B;stroke-width:1.3797;stroke-miterlimit:10;}
	.st101{fill:#E30613;stroke:#171310;stroke-width:0.6899;stroke-miterlimit:10;}
	.st102{fill:#1A7259;stroke:#171310;stroke-width:0.6899;stroke-miterlimit:10;}
	.st103{fill:#808430;stroke:#171310;stroke-width:0.6899;stroke-miterlimit:10;}
	.st104{fill:#F6F6F6;stroke:#171310;stroke-width:1.3797;stroke-miterlimit:10;}
	.st105{fill:#403C31;stroke:#171310;stroke-width:0.8363;stroke-miterlimit:10;}
	.st106{fill:none;stroke:#171310;stroke-width:1.8482;stroke-miterlimit:10;}
	.st107{fill:#1A7259;stroke:#171310;stroke-width:3.4493;stroke-miterlimit:10;}
	.st108{fill:#16634B;stroke:#171310;stroke-width:2.2715;stroke-miterlimit:10;}
	.st109{fill:#470003;stroke:#171310;stroke-width:1.3797;stroke-miterlimit:10;}
	.st110{fill:#FB0101;stroke:#171310;stroke-width:0.85;stroke-miterlimit:10;}
	.st111{fill:none;stroke:#171310;stroke-width:0.6899;stroke-miterlimit:10;}
	.st112{fill:#403C31;stroke:#1D1D1B;stroke-width:1.6243;stroke-miterlimit:10;}
	.st113{fill:none;stroke:#171310;stroke-width:17.407;stroke-miterlimit:10;}
	.st114{fill:#D38F00;stroke:#171310;stroke-width:13.0552;stroke-miterlimit:10;}
	.st115{fill:#470003;stroke:#171310;stroke-width:1.6243;stroke-miterlimit:10;}
	.st116{fill:#E30613;stroke:#171310;stroke-width:1.6243;stroke-miterlimit:10;}
	.st117{fill:#766C62;stroke:#1D1D1B;stroke-width:1.6243;stroke-miterlimit:10;}
	.st118{fill:#FFFFFF;stroke:#403C31;stroke-width:4.365;stroke-miterlimit:10;}
	.st119{fill:#353128;stroke:#1D1D1B;stroke-width:1.6243;stroke-miterlimit:10;}
	.st120{fill:#808430;stroke:#171310;stroke-width:1.6243;stroke-miterlimit:10;}
	.st121{fill:#6D6743;stroke:#171310;stroke-width:1.6243;stroke-miterlimit:10;}
	.st122{fill:#403C31;stroke:#171310;stroke-width:1.6243;stroke-miterlimit:10;}
	.st123{fill:#403C31;stroke:#171310;stroke-width:1.6243;stroke-linecap:round;stroke-linejoin:round;stroke-miterlimit:10;}
	.st124{fill:#171310;stroke:#171310;stroke-width:1.6243;stroke-linecap:round;stroke-linejoin:round;stroke-miterlimit:10;}
	.st125{fill:#171310;stroke:#171310;stroke-width:1.6243;stroke-miterlimit:10;}
	.st126{opacity:0.63;fill:#C37602;}
	.st127{fill:#403C31;stroke:#171310;stroke-width:0.5481;stroke-miterlimit:10;}
	.st128{fill:#171310;stroke:#171310;stroke-width:0.5481;stroke-miterlimit:10;}
	.st129{fill:#403C31;stroke:#171310;stroke-width:0.6325;stroke-miterlimit:10;}
	.st130{fill:#171310;stroke:#171310;stroke-width:0.6325;stroke-miterlimit:10;}
	.st131{fill:none;stroke:#020605;stroke-width:2.9342;stroke-miterlimit:10;}
	.st132{fill:#403C31;stroke:#1D1D1B;stroke-width:0.6001;stroke-miterlimit:10;}
	.st133{fill:#171310;stroke:#171310;stroke-width:0.6001;stroke-miterlimit:10;}
	.st134{fill:#EDEDED;stroke:#171310;stroke-width:0.6899;stroke-linecap:round;stroke-linejoin:round;stroke-miterlimit:10;}
	.st135{fill:#808430;stroke:#171310;stroke-width:0.6899;stroke-linecap:round;stroke-linejoin:round;stroke-miterlimit:10;}
	.st136{fill:#6D6743;stroke:#171310;stroke-width:0.6899;stroke-linecap:round;stroke-linejoin:round;stroke-miterlimit:10;}
</style>
<g id="g_436_">
	<g id="k_2313_">
		<path fill="#e50000" d="M0,20c0,0,0.1-0.2,0.4-0.6c0.3-0.4,0.5-0.9,1.1-1.6c0.3-0.3,0.5-0.7,0.9-1.1c0.3-0.4,0.7-0.7,1.1-1.2
			c0.8-0.8,1.8-1.7,3-2.5c1.1-0.8,2.5-1.6,4-2.3c1.5-0.6,3.1-1.2,4.9-1.6c1.7-0.4,3.6-0.6,5.5-0.5c1.9,0,3.8,0.3,5.7,0.7l1.4,0.4
			c0.2,0.1,0.4,0.1,0.7,0.2l0.6,0.3c0.9,0.3,1.7,0.8,2.6,1.2c1.7,0.9,3.2,2,4.5,3.2c1.3,1.2,2.4,2.6,3.4,3.9
			c0.9,1.4,1.7,2.7,2.2,4.1c0.6,1.3,0.9,2.6,1.1,3.7c0.2,1.1,0.4,2.1,0.4,2.9c0.1,0.8,0,1.5,0,1.9c0,0.4,0,0.7,0,0.7s0-0.2-0.1-0.7
			c0-0.4-0.1-1.1-0.2-1.9c-0.2-1.6-0.8-3.9-2-6.3c-0.6-1.2-1.4-2.5-2.3-3.7c-1-1.2-2.1-2.4-3.4-3.5c-1.3-1.1-2.8-2.1-4.3-2.9
			c-0.8-0.4-1.6-0.8-2.4-1.1l-0.6-0.3c-0.2-0.1-0.4-0.1-0.6-0.2L26,11c-1.7-0.4-3.5-0.7-5.3-0.7c-1.8,0-3.5,0.1-5.2,0.4
			c-1.7,0.3-3.2,0.8-4.7,1.3c-1.4,0.6-2.8,1.2-3.9,2c-0.6,0.4-1.1,0.7-1.6,1.1c-0.5,0.4-1,0.7-1.4,1.1c-0.4,0.4-0.8,0.7-1.2,1
			c-0.3,0.3-0.6,0.7-0.9,1c-0.6,0.6-0.9,1.1-1.2,1.4C0.1,19.8,0,20,0,20z"/>
	</g>
	<g id="k_2312_">
		<path fill="#e50000" d="M3.7,11.3c0,0,0.1-0.2,0.4-0.6c0.3-0.4,0.5-0.9,1.1-1.6C5.4,8.8,5.7,8.5,6,8.1c0.3-0.4,0.7-0.7,1.1-1.2
			c0.8-0.8,1.8-1.7,3-2.5c1.1-0.8,2.5-1.6,4-2.3c1.5-0.6,3.1-1.2,4.9-1.6C20.7,0.2,22.5,0,24.4,0c1.9,0,3.8,0.3,5.7,0.7l1.4,0.4
			c0.2,0.1,0.4,0.1,0.7,0.2l0.6,0.3c0.9,0.3,1.7,0.8,2.6,1.2c1.7,0.9,3.2,2,4.5,3.2c1.3,1.2,2.4,2.6,3.4,3.9
			c0.9,1.4,1.7,2.7,2.2,4.1c0.6,1.3,0.9,2.6,1.1,3.7c0.2,1.1,0.4,2.1,0.4,2.9c0.1,0.8,0,1.5,0,1.9c0,0.4,0,0.7,0,0.7s0-0.2-0.1-0.7
			c0-0.4-0.1-1.1-0.2-1.9c-0.2-1.6-0.8-3.9-2-6.3c-0.6-1.2-1.4-2.5-2.3-3.7c-1-1.2-2.1-2.4-3.4-3.5C37.7,6,36.2,5,34.7,4.1
			c-0.8-0.4-1.6-0.8-2.4-1.1l-0.6-0.3c-0.2-0.1-0.4-0.1-0.6-0.2l-1.3-0.4c-1.7-0.4-3.5-0.7-5.3-0.7c-1.8,0-3.5,0.1-5.2,0.4
			c-1.7,0.3-3.2,0.8-4.7,1.3c-1.4,0.6-2.8,1.2-3.9,2C9.9,5.5,9.4,5.9,8.9,6.2c-0.5,0.4-1,0.7-1.4,1.1C7,7.7,6.6,8,6.3,8.4
			C6,8.7,5.6,9,5.4,9.3c-0.6,0.6-0.9,1.1-1.2,1.4C3.8,11.1,3.7,11.3,3.7,11.3z"/>
	</g>
</g>
</svg>
